# xmcd CD database file
#
# Track frame offsets:
#	150
#	9347
#	20632
#	33977
#	47010
#	58912
#	75532
#	85460
#	104315
#	119377
#	131495
#	146202
#	158142
#	169750
#	179720
#	191822
#
# Disc length: 2801 seconds
#
# Revision: 0
# Processed by: cddbd v1.5.1PL0 Copyright (c) Steve Scherf et al.
# Submitted via: CDex 1.50beta9
#
DISCID=de0aef10
DTITLE=Gene Stuart - Old Loves And Country Memories
DYEAR=1900
DGENRE=Country
TTITLE0=Riverman
TTITLE1=Gypsy And Hobo
TTITLE2=Farmers Daughter
TTITLE3=River Shannon Flows
TTITLE4=Son Calls Another Man Daddy
TTITLE5=Where Country Is
TTITLE6=If We Never Meet Again
TTITLE7=Rosie
TTITLE8=Flowers Wont Grow
TTITLE9=Gone On The Other Hand
TTITLE10=I Think Of Home
TTITLE11=The Man Behind The Gun
TTITLE12=Old Love Turned Memory
TTITLE13=Just Lucky I Guess
TTITLE14=Id Rather Love And Lose You
TTITLE15=Cottage In The Country
EXTD=
EXTT0=
EXTT1=
EXTT2=
EXTT3=
EXTT4=
EXTT5=
EXTT6=
EXTT7=
EXTT8=
EXTT9=
EXTT10=
EXTT11=
EXTT12=
EXTT13=
EXTT14=
EXTT15=
PLAYORDER=
